<?xml version="1.0" encoding="UTF-8" standalone="no"?>
<svg
   version="1.1"
   width="491.53091"
   height="156.939"
   id="svg21"
   viewBox="0 0 491.53091 156.939"
   sodipodi:docname="12395a2fc542a0300d6162a4d734a082.cdr"
   xmlns:inkscape="http://www.inkscape.org/namespaces/inkscape"
   xmlns:sodipodi="http://sodipodi.sourceforge.net/DTD/sodipodi-0.dtd"
   xmlns="http://www.w3.org/2000/svg"
   xmlns:svg="http://www.w3.org/2000/svg">
  <defs
     id="defs25" />
  <sodipodi:namedview
     id="namedview23"
     pagecolor="#ffffff"
     bordercolor="#666666"
     borderopacity="1.0"
     inkscape:pageshadow="2"
     inkscape:pageopacity="0.0"
     inkscape:pagecheckerboard="0" />
  <g
     id="Layer1000"
     transform="translate(-51.8719,-342.4751)">
    <path
       d="m 499.6972,353.6187 c 14.2315,0 25.7711,11.5396 25.7711,25.77 0,14.2319 -11.5396,25.7715 -25.7711,25.7715 -14.23,0 -25.7696,-11.5396 -25.7696,-25.7715 0,-14.2304 11.5396,-25.77 25.7696,-25.77 z"
       style="fill:#3a4527;fill-rule:evenodd"
       id="path2" />
    <path
       d="m 406.4453,353.6154 c 14.2318,0 25.7714,11.5392 25.7714,25.7693 0,14.2315 -11.5396,25.7715 -25.7714,25.7715 -14.2301,0 -25.7697,-11.54 -25.7697,-25.7715 0,-14.2301 11.5396,-25.7693 25.7697,-25.7693 z"
       style="fill:#3a4527;fill-rule:evenodd"
       id="path4" />
    <path
       d="m 320.3974,353.7015 c 14.2318,0 25.7715,11.5393 25.7715,25.7697 0,14.2311 -11.5397,25.7711 -25.7715,25.7711 -14.2301,0 -25.7697,-11.54 -25.7697,-25.7711 0,-14.2304 11.5396,-25.7697 25.7697,-25.7697 z"
       style="fill:#3a4527;fill-rule:evenodd"
       id="path6" />
    <path
       d="m 319.5389,412.0598 c 14.2315,0 25.7711,11.5396 25.7711,25.7701 0,14.2318 -11.5396,25.7714 -25.7711,25.7714 -14.2301,0 -25.7697,-11.5396 -25.7697,-25.7714 0,-14.2305 11.5396,-25.7701 25.7697,-25.7701 z"
       style="fill:#3a4527;fill-rule:evenodd"
       id="path8" />
    <path
       d="m 288.1865,353.663 h -4.9554 v 109.91 l -4.4662,0.001 h 9.4216 z m -14.1877,0 H 173.5829 l 48.2839,105.375 3.3589,-0.01 z m -110.1546,0 h -13.2093 l -0.2028,57.9157 c -0.5187,9.2015 -1.3544,16.2093 -3.5678,23.313 -2.2221,7.1381 -5.0046,11.7948 -9.4486,16.3716 -4.8005,4.9467 -7.5363,7.2548 -13.4331,9.7558 -5.6202,2.3831 -11.8292,2.5441 -18.8038,2.5552 h 58.6814 z m -18.4609,0 H 63.019 l 0.0799,55.9038 c -0.0099,7.9529 1.0041,17.1913 4.6149,25.8276 3.4154,8.1765 7.5584,14.0377 14.0942,17.9643 7.6272,4.5855 16.2905,5.0488 23.3425,5.0488 7.0828,0 15.1254,-1.6592 19.9235,-4.2474 7.9762,-4.3077 11.8378,-9.3663 15.1106,-16.2917 3.3663,-7.1221 4.8435,-18.7621 4.8841,-26.6965 z m -87.4069,0 h -5.9792 v 109.9113 h 49.1701 c -5.7972,-0.016 -10.0987,-0.2053 -15.4166,-2.1459 -5.9951,-2.1839 -10.5695,-4.8853 -14.753,-9.7509 -4.1995,-4.8841 -7.2806,-9.762 -9.5248,-16.9087 -2.2307,-7.1049 -3.4965,-16.3974 -3.4965,-25.6162 z m 110.7912,109.9113 h 49.2107 L 170.6517,359.4049 h -1.8841 z m 59.8391,0 h 50.1582 v -104.956 h -1.7144 z"
       style="fill:#0a120a;fill-rule:evenodd"
       id="path10" />
    <path
       d="m 369.3692,353.6705 h 5.1072 v 109.9133 h -5.1072 z"
       style="fill:#0a120a;fill-rule:evenodd"
       id="path12" />
    <path
       d="m 382.2813,411.7145 3.6109,-3.6109 51.8445,51.8477 -3.6114,3.611 z"
       style="fill:#0a120a;fill-rule:evenodd"
       id="path14" />
    <path
       d="m 66.5619,472.6283 v 19.1145 h 1.8257 c 0.3398,0 0.5796,0.0609 0.7194,0.1891 0.1398,0.1208 0.2121,0.2887 0.2121,0.496 0,0.1927 -0.0723,0.3559 -0.2121,0.4884 -0.1398,0.1281 -0.3796,0.196 -0.7194,0.196 h -3.2139 v -2.7248 c -1.5881,2.1729 -3.6095,3.2654 -6.0546,3.2654 -1.2436,0 -2.4291,-0.3286 -3.5654,-0.9925 -1.1366,-0.657 -2.0331,-1.5925 -2.6967,-2.8131 -0.6566,-1.2202 -0.9851,-2.4732 -0.9851,-3.7701 0,-1.3042 0.3285,-2.5642 0.9851,-3.7771 0.6636,-1.2158 1.5601,-2.152 2.6967,-2.8138 1.1363,-0.6636 2.3287,-0.9961 3.5818,-0.9961 2.3962,0 4.4059,1.0848 6.0382,3.2624 v -7.7362 H 63.348 c -0.3398,0 -0.5796,-0.0632 -0.7194,-0.1957 -0.1446,-0.1281 -0.2121,-0.3007 -0.2121,-0.5077 0,-0.1931 0.0675,-0.3562 0.2121,-0.4887 0.1398,-0.1282 0.3796,-0.196 0.7194,-0.196 z m -1.3882,13.4489 c 0,-1.7396 -0.5891,-3.2091 -1.7651,-4.4082 -1.1691,-1.1975 -2.5685,-1.7936 -4.1895,-1.7936 -1.6323,0 -3.0365,0.5961 -4.2125,1.7936 -1.1739,1.1991 -1.7652,2.6686 -1.7652,4.4082 0,1.7327 0.5913,3.1971 1.7652,4.4008 1.176,1.2024 2.5802,1.805 4.2125,1.805 1.621,0 3.0204,-0.6026 4.1895,-1.805 1.176,-1.2037 1.7651,-2.6681 1.7651,-4.4008 z m 22.1492,0.2935 H 73.3524 c 0.2398,1.7717 0.9804,3.204 2.2287,4.2847 1.2458,1.0805 2.7854,1.6276 4.6272,1.6276 1.0202,0 2.0914,-0.1745 3.216,-0.5077 1.1202,-0.3398 2.0331,-0.7844 2.7412,-1.3363 0.2048,-0.1675 0.384,-0.2446 0.5402,-0.2446 0.1723,0 0.3212,0.065 0.4563,0.2004 0.1281,0.1373 0.1956,0.2935 0.1956,0.484 0,0.184 -0.0909,0.3614 -0.2632,0.5337 -0.5238,0.5467 -1.4483,1.0545 -2.785,1.5275 -1.3322,0.4727 -2.7013,0.7129 -4.1011,0.7129 -2.3496,0 -4.3104,-0.7691 -5.8872,-2.3127 -1.5717,-1.537 -2.3565,-3.4022 -2.3565,-5.5868 0,-1.9933 0.7359,-3.6978 2.2123,-5.1257 1.4765,-1.4254 3.2975,-2.1375 5.4747,-2.1375 2.2404,0 4.0848,0.7289 5.5335,2.1933 1.4483,1.4652 2.1608,3.3606 2.1378,5.6872 z m -1.3859,-1.3856 c -0.2745,-1.5097 -0.9873,-2.7415 -2.1448,-3.6887 -1.1596,-0.9461 -2.5404,-1.421 -4.1406,-1.421 -1.5972,0 -2.9737,0.4679 -4.1263,1.4042 -1.1553,0.9366 -1.8725,2.1732 -2.1565,3.7055 z m 18.5557,-5.1097 c 0,-0.3164 0.0654,-0.5449 0.1935,-0.6847 0.135,-0.1395 0.2956,-0.2117 0.4913,-0.2117 0.2047,0 0.3796,0.0722 0.5077,0.2117 0.1325,0.1398 0.1931,0.3796 0.1931,0.7197 v 2.3499 c 0,0.3234 -0.0606,0.5567 -0.1931,0.7005 -0.1281,0.1398 -0.303,0.2121 -0.5077,0.2121 -0.184,0 -0.3402,-0.0603 -0.4636,-0.1767 -0.1281,-0.1234 -0.2,-0.3194 -0.2212,-0.5917 -0.0628,-0.6519 -0.4029,-1.1921 -1.0081,-1.6137 -0.8968,-0.6077 -2.0729,-0.9154 -3.5446,-0.9154 -1.5323,0 -2.7222,0.3125 -3.5745,0.9315 -0.6427,0.4679 -0.9643,0.9924 -0.9643,1.5648 0,0.6526 0.3843,1.1972 1.1483,1.633 0.5168,0.3051 1.5089,0.5398 2.9689,0.7004 1.905,0.2074 3.2256,0.4406 3.9662,0.7038 1.0523,0.3843 1.837,0.9077 2.3564,1.5808 0.5173,0.6731 0.7731,1.4042 0.7731,2.1893 0,1.164 -0.5562,2.201 -1.6812,3.1087 -1.1202,0.9085 -2.7642,1.3652 -4.9254,1.3652 -2.1681,0 -3.938,-0.5519 -5.3188,-1.6495 0,0.3683 -0.0234,0.6085 -0.0675,0.7202 -0.0442,0.1043 -0.1234,0.2 -0.2398,0.2722 -0.1121,0.0771 -0.2398,0.1165 -0.3796,0.1165 -0.2004,0 -0.361,-0.0723 -0.4891,-0.2117 -0.1351,-0.1402 -0.2004,-0.3727 -0.2004,-0.7016 v -2.8247 c 0,-0.3278 0.0653,-0.5567 0.1887,-0.7027 0.1281,-0.1376 0.2887,-0.2098 0.5008,-0.2098 0.1956,0 0.3562,0.0653 0.496,0.2051 0.1351,0.1325 0.2,0.3161 0.2,0.5449 0,0.503 0.1281,0.9195 0.3796,1.2549 0.3796,0.5242 0.9852,0.9574 1.8214,1.2973 0.8311,0.3445 1.8488,0.519 3.0598,0.519 1.7816,0 3.1066,-0.3354 3.9822,-0.9987 0.8687,-0.6613 1.3042,-1.3651 1.3042,-2.1053 0,-0.8454 -0.4402,-1.5254 -1.3206,-2.0375 -0.8917,-0.5124 -2.1889,-0.8592 -3.8935,-1.0322 -1.7046,-0.1723 -2.9251,-0.4 -3.6654,-0.6844 -0.7431,-0.2839 -1.3158,-0.7077 -1.7283,-1.2716 -0.412,-0.568 -0.6238,-1.1732 -0.6238,-1.8324 0,-1.1694 0.5797,-2.1057 1.7324,-2.7948 1.153,-0.6913 2.5291,-1.0359 4.1289,-1.0359 1.8933,0 3.4303,0.4607 4.618,1.3852 z m 16.2106,-7.9315 v 3.542 h -2.0236 v -3.542 z m 0.0489,7.0351 v 12.7638 h 5.382 c 0.3398,0 0.5796,0.0609 0.7194,0.1891 0.1445,0.1208 0.2121,0.2887 0.2121,0.496 0,0.1927 -0.0676,0.3559 -0.2121,0.4884 -0.1398,0.1281 -0.3796,0.196 -0.7194,0.196 h -12.1379 c -0.3307,0 -0.5635,-0.0679 -0.703,-0.196 -0.1445,-0.1325 -0.212,-0.2957 -0.212,-0.4884 0,-0.2073 0.0675,-0.3752 0.212,-0.496 0.1395,-0.1282 0.3723,-0.1891 0.703,-0.1891 h 5.3868 v -11.3757 h -4.0009 c -0.3285,0 -0.5613,-0.0679 -0.7128,-0.196 -0.1442,-0.1329 -0.2165,-0.2957 -0.2165,-0.491 0,-0.2051 0.0723,-0.3774 0.2117,-0.5055 0.1377,-0.1281 0.3775,-0.1956 0.7176,-0.1956 z m 23.9443,2.5126 v -2.5126 h 3.2138 c 0.3285,0 0.5636,0.0675 0.7008,0.1956 0.1398,0.1281 0.2121,0.3004 0.2121,0.5055 0,0.1953 -0.0723,0.3581 -0.2121,0.491 -0.1372,0.1281 -0.3723,0.196 -0.7008,0.196 h -1.8443 v 13.6927 c 0,0.9133 -0.1957,1.7261 -0.5844,2.4456 -0.2632,0.4796 -0.6964,0.9734 -1.3089,1.4881 -0.6078,0.5121 -1.1644,0.8734 -1.6674,1.0899 -0.4938,0.219 -1.1691,0.3307 -2.0049,0.3307 h -3.8822 c -0.3285,0 -0.5636,-0.0632 -0.7012,-0.1913 -0.1464,-0.1212 -0.2117,-0.2887 -0.2117,-0.496 0,-0.2052 0.0653,-0.3774 0.2117,-0.5056 0.1376,-0.1281 0.3727,-0.1952 0.7012,-0.1952 l 3.9333,0.016 c 0.8012,0 1.5323,-0.2047 2.1772,-0.6241 0.6475,-0.4118 1.1808,-1.0126 1.6046,-1.809 0.2398,-0.4566 0.3632,-1.0366 0.3632,-1.7447 v -4.1173 c -1.4717,2.0171 -3.365,3.0208 -5.6821,3.0208 -1.8794,0 -3.5047,-0.6968 -4.8695,-2.0962 -1.3647,-1.3972 -2.0491,-3.081 -2.0491,-5.0506 0,-1.9684 0.6844,-3.6493 2.0491,-5.0418 1.3648,-1.3928 2.9901,-2.0889 4.8695,-2.0889 2.3171,0 4.2104,1.0009 5.6821,3.0014 z m 0,4.1293 c 0,-1.6115 -0.5519,-2.9693 -1.6557,-4.08 -1.1085,-1.1089 -2.4218,-1.6655 -3.961,-1.6655 -1.5323,0 -2.8507,0.5566 -3.9497,1.6725 -1.0969,1.1198 -1.6488,2.4725 -1.6488,4.073 0,1.609 0.5519,2.9734 1.6488,4.0866 1.099,1.1158 2.4174,1.6725 3.9497,1.6725 1.5392,0 2.8525,-0.5567 3.961,-1.6725 1.1038,-1.1132 1.6557,-2.4776 1.6557,-4.0866 z m 11.0176,-6.6419 v 2.0725 c 0.9592,-0.9688 1.821,-1.6371 2.5966,-2.005 0.7684,-0.3723 1.644,-0.5563 2.6058,-0.5563 1.0479,0 2.0006,0.2212 2.8598,0.668 0.6125,0.3281 1.1644,0.8691 1.6579,1.6257 0.4916,0.7519 0.7431,1.5323 0.7431,2.3236 v 8.6353 h 1.1574 c 0.3234,0 0.5563,0.0609 0.703,0.1891 0.1376,0.1208 0.2121,0.2887 0.2121,0.496 0,0.1927 -0.0745,0.3559 -0.2121,0.4884 -0.1467,0.1281 -0.3796,0.196 -0.703,0.196 h -3.6701 c -0.3402,0 -0.58,-0.0679 -0.7198,-0.196 -0.1441,-0.1325 -0.2117,-0.2957 -0.2117,-0.4884 0,-0.2073 0.0676,-0.3752 0.2117,-0.496 0.1398,-0.1282 0.3796,-0.1891 0.7198,-0.1891 h 1.141 v -8.4064 c 0,-0.9691 -0.3562,-1.7885 -1.0643,-2.4569 -0.7078,-0.6687 -1.6535,-1.0041 -2.8343,-1.0041 -0.9081,0 -1.6881,0.1843 -2.3517,0.5472 -0.6639,0.3682 -1.6093,1.2691 -2.8412,2.7178 v 8.6024 h 1.5487 c 0.3282,0 0.5636,0.0609 0.703,0.1891 0.1446,0.1208 0.2099,0.2887 0.2099,0.496 0,0.1927 -0.0653,0.3559 -0.2099,0.4884 -0.1394,0.1281 -0.3748,0.196 -0.703,0.196 h -4.4738 c -0.3234,0 -0.5563,-0.0679 -0.7008,-0.196 -0.1398,-0.1325 -0.2121,-0.2957 -0.2121,-0.4884 0,-0.2073 0.0723,-0.3752 0.2121,-0.496 0.1445,-0.1282 0.3774,-0.1891 0.7008,-0.1891 h 1.5556 v -11.3757 h -1.1596 c -0.3285,0 -0.5636,-0.0679 -0.7008,-0.196 -0.1467,-0.1329 -0.2121,-0.3004 -0.2121,-0.5078 0,-0.1927 0.0654,-0.3606 0.2121,-0.4887 0.1372,-0.1281 0.3723,-0.1956 0.7008,-0.1956 z m 49.1624,2.5126 v -2.5126 h 3.2139 c 0.3285,0 0.5635,0.0675 0.7008,0.1956 0.1398,0.1281 0.212,0.3004 0.212,0.5055 0,0.1953 -0.0722,0.3581 -0.212,0.491 -0.1373,0.1281 -0.3723,0.196 -0.7008,0.196 h -1.8444 v 13.6927 c 0,0.9133 -0.1956,1.7261 -0.5844,2.4456 -0.2631,0.4796 -0.6964,0.9734 -1.3089,1.4881 -0.6077,0.5121 -1.1643,0.8734 -1.6673,1.0899 -0.4939,0.219 -1.1691,0.3307 -2.005,0.3307 h -3.8822 c -0.3285,0 -0.5635,-0.0632 -0.7011,-0.1913 -0.1464,-0.1212 -0.2117,-0.2887 -0.2117,-0.496 0,-0.2052 0.0653,-0.3774 0.2117,-0.5056 0.1376,-0.1281 0.3726,-0.1952 0.7011,-0.1952 l 3.9333,0.016 c 0.8012,0 1.5323,-0.2047 2.1773,-0.6241 0.6475,-0.4118 1.1808,-1.0126 1.6045,-1.809 0.2398,-0.4566 0.3632,-1.0366 0.3632,-1.7447 v -4.1173 c -1.4717,2.0171 -3.365,3.0208 -5.682,3.0208 -1.8794,0 -3.5048,-0.6968 -4.8695,-2.0962 -1.3648,-1.3972 -2.0492,-3.081 -2.0492,-5.0506 0,-1.9684 0.6844,-3.6493 2.0492,-5.0418 1.3647,-1.3928 2.9901,-2.0889 4.8695,-2.0889 2.317,0 4.2103,1.0009 5.682,3.0014 z m 0,4.1293 c 0,-1.6115 -0.5519,-2.9693 -1.6557,-4.08 -1.1085,-1.1089 -2.4218,-1.6655 -3.961,-1.6655 -1.5323,0 -2.8507,0.5566 -3.9497,1.6725 -1.0968,1.1198 -1.6487,2.4725 -1.6487,4.073 0,1.609 0.5519,2.9734 1.6487,4.0866 1.099,1.1158 2.4174,1.6725 3.9497,1.6725 1.5392,0 2.8525,-0.5567 3.961,-1.6725 1.1038,-1.1132 1.6557,-2.4776 1.6557,-4.0866 z m 13.8099,-6.6419 v 3.4606 c 1.7813,-1.6115 3.1183,-2.6481 4.0052,-3.1091 0.8852,-0.4636 1.705,-0.6961 2.4569,-0.6961 0.8176,0 1.5742,0.2767 2.2776,0.8242 0.7012,0.5519 1.0527,0.9687 1.0527,1.2487 0,0.2117 -0.0723,0.377 -0.2048,0.5164 -0.1354,0.1351 -0.3077,0.2008 -0.5147,0.2008 -0.1095,0 -0.2003,-0.0168 -0.2774,-0.0566 -0.0792,-0.0369 -0.2164,-0.1602 -0.4237,-0.3675 -0.3844,-0.3771 -0.7125,-0.6403 -0.9969,-0.7782 -0.2839,-0.1464 -0.5635,-0.2187 -0.8311,-0.2187 -0.6008,0 -1.3206,0.2402 -2.1659,0.7194 -0.8406,0.48 -2.3006,1.6488 -4.3779,3.5096 v 7.5103 h 6.0711 c 0.3351,0 0.5727,0.0609 0.7195,0.1891 0.1372,0.1208 0.212,0.2887 0.212,0.496 0,0.1927 -0.0748,0.3559 -0.212,0.4884 -0.1468,0.1281 -0.3844,0.196 -0.7195,0.196 h -10.7566 c -0.3285,0 -0.5636,-0.0606 -0.7034,-0.1887 -0.1372,-0.1238 -0.2121,-0.284 -0.2121,-0.4796 0,-0.184 0.0676,-0.3399 0.2074,-0.468 0.1328,-0.1237 0.3679,-0.1839 0.7081,-0.1839 h 3.3138 v -11.425 h -2.5291 c -0.3285,0 -0.5635,-0.0679 -0.7011,-0.196 -0.1464,-0.1329 -0.2117,-0.3004 -0.2117,-0.5078 0,-0.1927 0.0653,-0.3606 0.2003,-0.4887 0.1395,-0.1281 0.3723,-0.1956 0.7125,-0.1956 z m 29.3635,7.0982 c 0,2.0889 -0.7479,3.8771 -2.2473,5.3535 -1.4976,1.4812 -3.2978,2.2222 -5.4075,2.2222 -2.1357,0 -3.945,-0.7476 -5.4379,-2.2288 -1.4877,-1.4881 -2.2331,-3.2697 -2.2331,-5.3469 0,-2.0893 0.7454,-3.8778 2.2331,-5.3612 1.4929,-1.4856 3.3022,-2.2258 5.4379,-2.2258 2.1097,0 3.9099,0.7402 5.4075,2.2171 1.4994,1.4808 2.2473,3.2689 2.2473,5.3699 z m -1.3881,0 c 0,-1.7166 -0.6125,-3.181 -1.8396,-4.3899 -1.225,-1.2089 -2.7062,-1.8119 -4.4436,-1.8119 -1.744,0 -3.2273,0.6081 -4.4523,1.821 -1.2206,1.2115 -1.833,2.6759 -1.833,4.3808 0,1.6976 0.6124,3.1576 1.833,4.3735 1.225,1.218 2.7083,1.8323 4.4523,1.8323 1.7374,0 3.2186,-0.6074 4.4436,-1.8236 1.2271,-1.2132 1.8396,-2.6729 1.8396,-4.3822 z m 18.4765,7.0351 v -2.0054 c -1.8699,1.6929 -3.8986,2.546 -6.0711,2.546 -1.3366,0 -2.3568,-0.368 -3.0529,-1.0969 -0.9016,-0.953 -1.3531,-2.0728 -1.3531,-3.3442 v -8.8447 h -1.8443 c -0.3285,0 -0.5636,-0.0679 -0.7012,-0.196 -0.1467,-0.1329 -0.2117,-0.3004 -0.2117,-0.5078 0,-0.1927 0.065,-0.3606 0.2117,-0.4887 0.1376,-0.1281 0.3727,-0.1956 0.7012,-0.1956 h 3.2135 v 10.2328 c 0,0.8918 0.2843,1.6272 0.8479,2.2007 0.5679,0.5796 1.276,0.8705 2.1214,0.8705 2.2287,0 4.28,-1.0268 6.1386,-3.0712 v -8.8447 h -2.5338 c -0.3238,0 -0.5567,-0.0679 -0.6961,-0.196 -0.1446,-0.1329 -0.2168,-0.3004 -0.2168,-0.5078 0,-0.1927 0.0722,-0.3606 0.2168,-0.4887 0.1394,-0.1281 0.3723,-0.1956 0.6961,-0.1956 h 3.9055 v 12.7638 h 1.1596 c 0.3212,0 0.5566,0.0609 0.7008,0.1891 0.1398,0.1208 0.2121,0.2887 0.2121,0.496 0,0.1927 -0.0723,0.3559 -0.2121,0.4884 -0.1442,0.1281 -0.3796,0.196 -0.7008,0.196 z m 10.2001,-14.1333 v 2.4962 c 0.8198,-0.9917 1.695,-1.7327 2.6291,-2.2334 0.9362,-0.503 2.04,-0.7516 3.3091,-0.7516 1.3553,0 2.5966,0.3165 3.7398,0.9454 1.1414,0.6311 2.0262,1.5115 2.6503,2.6357 0.6311,1.1253 0.9432,2.3104 0.9432,3.5496 0,1.9696 -0.7081,3.6534 -2.1192,5.0506 -1.402,1.3994 -3.1347,2.0962 -5.1955,2.0962 -2.4473,0 -4.4362,-0.9924 -5.9568,-2.9879 v 8.2622 h 3.3324 c 0.3238,0 0.5567,0.061 0.7008,0.184 0.1398,0.1285 0.2121,0.2956 0.2121,0.5008 0,0.196 -0.0723,0.3566 -0.2121,0.4916 -0.1441,0.1282 -0.377,0.1957 -0.7008,0.1957 h -6.5463 c -0.3281,0 -0.5636,-0.0632 -0.7008,-0.1913 -0.1398,-0.1212 -0.2121,-0.2887 -0.2121,-0.496 0,-0.2052 0.0723,-0.3723 0.2121,-0.5008 0.1372,-0.123 0.3727,-0.184 0.7008,-0.184 h 1.8444 v -17.6749 h -1.8444 c -0.3281,0 -0.5636,-0.0679 -0.7008,-0.196 -0.1398,-0.1329 -0.2121,-0.3004 -0.2121,-0.5078 0,-0.1927 0.0723,-0.3606 0.2121,-0.4887 0.1372,-0.1281 0.3727,-0.1956 0.7008,-0.1956 z m 11.8834,6.6419 c 0,-1.5768 -0.5749,-2.932 -1.7206,-4.0573 -1.1483,-1.1243 -2.5525,-1.6882 -4.206,-1.6882 -1.6604,0 -3.0693,0.5687 -4.2242,1.6998 -1.153,1.1297 -1.7326,2.4784 -1.7326,4.0457 0,1.5761 0.5796,2.9339 1.7326,4.0658 1.1549,1.1297 2.5638,1.6933 4.2242,1.6933 1.6418,0 3.0412,-0.5636 4.1943,-1.6885 1.1527,-1.1253 1.7323,-2.4853 1.7323,-4.0706 z"
       style="fill:#1b1918;fill-rule:evenodd"
       id="path16" />
    <path
       d="M 543.4028,463.5528 V 397.824 c 0,-9.2164 -1.1968,-18.5138 -3.3036,-25.6153 -2.1181,-7.1475 -5.0316,-12.0258 -8.9988,-16.9088 -3.9516,-4.8666 -8.274,-7.5684 -13.9366,-9.7518 -5.8463,-2.2569 -11.5568,-3.073 -18.5422,-3.073 -6.9873,0 -12.0057,0.9822 -17.5768,3.4825 -5.5707,2.5017 -8.1557,4.8089 -12.6901,9.7558 -4.1983,4.5768 -6.827,9.2332 -8.9262,16.3716 -2.0914,7.104 -2.881,14.1107 -3.3704,23.3131 l -0.2008,68.0737 h 4.9707 l 0.2963,-67.6667 c 0.0384,-7.9348 1.4338,-19.5748 4.6151,-26.6957 3.0913,-6.9263 6.7388,-11.9852 14.275,-16.2926 4.533,-2.5876 12.0002,-5.0707 18.6915,-5.0707 6.6624,0 14.9765,1.2867 22.182,5.8722 6.1752,3.9267 10.0884,9.7872 13.3154,17.9644 3.4106,8.6364 4.3683,17.8743 4.3588,25.8277 l 0.0767,66.1424 z"
       style="fill:#0a120a;fill-rule:evenodd"
       id="path18" />
  </g>
</svg>
